<?xml version="1.0" standalone="no"?>
<!DOCTYPE svg PUBLIC "-//W3C//DTD SVG 20010904//EN"
 "http://www.w3.org/TR/2001/REC-SVG-20010904/DTD/svg10.dtd">
<svg version="1.0" xmlns="http://www.w3.org/2000/svg"
 width="707.000000pt" height="353.000000pt" viewBox="0 0 707.000000 353.000000"
 preserveAspectRatio="xMidYMid meet">

<g transform="translate(0.000000,353.000000) scale(0.100000,-0.100000)"
fill="#000000" stroke="none">
<path d="M3070 2090 c0 -54 -1 -55 -31 -40 -33 18 -87 -14 -100 -60 -27 -88
39 -158 112 -120 13 7 19 7 19 0 0 -5 14 -10 30 -10 l30 0 0 140 0 140 -30 0
c-29 0 -30 -1 -30 -50z m-11 -94 c17 -20 10 -77 -11 -90 -26 -16 -52 4 -56 43
-4 36 12 61 38 61 10 0 23 -6 29 -14z"/>
<path d="M1893 2115 c-46 -20 -73 -69 -73 -131 0 -42 5 -57 29 -84 24 -29 36
-34 85 -38 42 -3 61 -10 69 -23 8 -13 24 -19 51 -19 l40 0 -33 34 -34 35 22
27 c30 38 29 121 -1 159 -22 28 -74 55 -105 55 -10 -1 -33 -7 -50 -15z m95
-55 c16 -15 22 -32 22 -63 0 -58 -22 -87 -66 -87 -67 0 -94 92 -42 147 27 28
57 29 86 3z"/>
<path d="M2120 1995 l0 -135 30 0 c29 0 30 1 30 51 0 43 3 50 18 47 9 -2 31
-24 47 -50 24 -37 36 -47 58 -47 15 -1 27 3 27 8 0 5 -15 31 -34 59 l-35 50
25 23 c25 24 31 58 14 89 -13 24 -62 40 -126 40 l-54 0 0 -135z m126 73 c3 -5
3 -20 0 -34 -5 -19 -13 -24 -36 -24 -27 0 -30 3 -30 33 0 19 2 36 5 39 8 8 54
-3 61 -14z"/>
<path d="M2540 2112 c-75 -37 -103 -132 -58 -198 28 -41 56 -54 116 -54 50 0
72 12 72 40 0 14 -9 16 -53 12 -49 -4 -56 -2 -75 23 -33 42 -29 87 10 120 27
23 37 26 75 20 39 -6 43 -4 43 15 0 39 -72 52 -130 22z"/>
<path d="M3585 2123 c-84 -21 -126 -113 -91 -198 18 -43 61 -65 126 -65 80 0
90 9 90 85 l0 65 -56 0 c-52 0 -55 -1 -52 -22 2 -17 11 -24 31 -26 28 -3 31
-9 21 -36 -9 -24 -69 -21 -94 6 -49 53 -8 148 65 148 20 0 45 -5 56 -10 16 -9
19 -7 19 15 0 37 -51 54 -115 38z"/>
<path d="M4803 2098 c-13 -6 -23 -17 -23 -25 0 -7 -7 -13 -15 -13 -8 0 -15 -9
-15 -20 0 -11 7 -20 15 -20 12 0 15 -13 15 -58 0 -74 18 -102 66 -102 27 0 34
4 34 19 0 10 -9 21 -20 24 -17 4 -20 14 -20 61 0 49 2 56 20 56 12 0 20 7 20
16 0 9 -9 18 -20 21 -13 3 -20 14 -20 29 0 26 -4 28 -37 12z"/>
<path d="M2773 2053 c-71 -14 -99 -110 -46 -165 39 -40 103 -40 144 1 71 71 4
183 -98 164z m54 -51 c22 -14 25 -57 5 -82 -40 -49 -101 5 -73 66 11 24 43 32
68 16z"/>
<path d="M3223 2044 c-40 -21 -53 -42 -53 -89 0 -31 7 -49 25 -69 22 -24 31
-27 78 -24 43 3 52 6 55 23 2 18 -2 20 -38 17 -38 -4 -70 9 -70 29 0 5 27 9
59 9 33 0 62 4 65 8 7 12 -12 80 -25 87 -30 19 -69 22 -96 9z m66 -43 c13 -24
5 -31 -36 -31 -36 0 -41 10 -17 34 21 21 41 20 53 -3z"/>
<path d="M3810 2042 c-63 -31 -78 -99 -34 -152 24 -28 31 -31 78 -28 43 3 51
6 54 24 3 18 -1 21 -22 17 -36 -7 -76 5 -76 22 0 12 14 15 61 15 l62 0 -6 37
c-11 66 -60 94 -117 65z m58 -34 c23 -23 13 -38 -23 -38 -22 0 -35 5 -35 13 0
16 20 37 35 37 6 0 16 -5 23 -12z"/>
<path d="M3977 2053 c-4 -3 -7 -48 -7 -100 l0 -93 30 0 29 0 3 73 c3 69 4 72
29 75 31 4 39 -15 39 -95 0 -50 2 -53 25 -53 25 0 25 1 25 79 0 59 -4 84 -16
95 -18 18 -79 21 -90 5 -5 -8 -10 -6 -16 5 -9 16 -39 22 -51 9z"/>
<path d="M4246 2042 c-60 -24 -74 -114 -25 -163 16 -16 31 -19 72 -17 44 3 52
6 55 24 3 18 -1 21 -22 17 -36 -7 -76 5 -76 22 0 12 14 15 60 15 59 0 60 0 60
29 0 35 -32 77 -64 83 -13 3 -40 -2 -60 -10z m62 -34 c23 -23 13 -38 -23 -38
-22 0 -35 5 -35 13 0 16 20 37 35 37 6 0 16 -5 23 -12z"/>
<path d="M4410 1960 l0 -100 25 0 c24 0 25 3 25 53 0 59 20 97 51 97 12 0 19
7 19 18 0 29 -11 33 -38 16 -23 -15 -26 -15 -34 0 -5 9 -18 16 -28 16 -19 0
-20 -8 -20 -100z"/>
<path d="M4606 2050 c-28 -5 -56 -33 -45 -44 3 -3 19 0 36 6 34 13 63 6 63
-16 0 -10 -14 -17 -37 -21 -21 -3 -45 -10 -53 -14 -19 -10 -25 -68 -9 -87 13
-16 52 -18 80 -4 13 7 19 7 19 0 0 -5 11 -10 25 -10 25 0 25 1 25 78 0 63 -4
82 -17 94 -23 19 -51 25 -87 18z m52 -122 c-4 -31 -58 -40 -58 -9 0 20 12 29
43 30 14 1 18 -5 15 -21z"/>
<path d="M4962 2045 c-45 -19 -68 -73 -52 -121 15 -45 45 -64 98 -64 61 0 92
32 92 95 0 35 -6 52 -25 70 -13 14 -31 25 -39 25 -8 0 -20 2 -28 5 -7 2 -28
-2 -46 -10z m79 -59 c25 -53 -25 -110 -66 -76 -18 15 -20 71 -3 88 21 21 57
14 69 -12z"/>
<path d="M5157 2053 c-4 -3 -7 -48 -7 -100 0 -93 0 -93 25 -93 24 0 25 3 25
56 0 68 13 94 45 94 18 0 25 5 25 19 0 28 -12 32 -43 16 -23 -12 -27 -12 -27
1 0 14 -31 20 -43 7z"/>
<path d="M2756 1557 c3 -10 9 -15 12 -12 3 3 0 11 -7 18 -10 9 -11 8 -5 -6z"/>
<path d="M3818 1529 c2 -16 -1 -36 -8 -44 -10 -12 -9 -16 4 -21 9 -4 20 -4 23
0 4 3 2 6 -4 6 -7 0 -9 15 -6 39 3 21 1 41 -4 44 -5 3 -8 -7 -5 -24z"/>
<path d="M2858 1533 c6 -2 18 -2 25 0 6 3 1 5 -13 5 -14 0 -19 -2 -12 -5z"/>
<path d="M2916 1531 c-4 -5 3 -7 14 -4 14 4 22 -1 29 -18 6 -14 10 -18 10 -8
2 29 -40 52 -53 30z"/>
<path d="M2996 1531 c-4 -5 3 -7 14 -4 23 6 26 13 6 13 -8 0 -17 -4 -20 -9z"/>
<path d="M3148 1533 c6 -2 18 -2 25 0 6 3 1 5 -13 5 -14 0 -19 -2 -12 -5z"/>
<path d="M3206 1531 c-4 -5 3 -7 14 -4 14 4 22 -1 29 -18 6 -14 10 -18 10 -8
2 29 -40 52 -53 30z"/>
<path d="M3338 1533 c7 -3 16 -2 19 1 4 3 -2 6 -13 5 -11 0 -14 -3 -6 -6z"/>
<path d="M3532 1534 c10 -3 19 -19 21 -37 4 -31 5 -31 3 3 -1 27 -5 35 -21 37
-14 1 -15 0 -3 -3z"/>
<path d="M3588 1533 c7 -3 16 -2 19 1 4 3 -2 6 -13 5 -11 0 -14 -3 -6 -6z"/>
<path d="M4103 1529 c9 -5 17 -18 18 -27 0 -11 2 -12 6 -4 6 15 -14 42 -31 42
-6 0 -3 -5 7 -11z"/>
<path d="M4242 1528 c-7 -7 -12 -19 -11 -27 0 -10 4 -7 9 7 11 26 25 28 39 5
6 -10 11 -13 11 -7 0 11 -20 34 -30 34 -3 0 -11 -5 -18 -12z"/>
<path d="M4315 1529 c-4 -6 -4 -13 -1 -16 3 -4 6 -1 6 5 0 6 8 13 18 15 15 4
15 5 0 6 -9 0 -20 -4 -23 -10z"/>
<path d="M2770 1525 c0 -5 5 -17 10 -25 5 -8 10 -10 10 -5 0 6 -5 17 -10 25
-5 8 -10 11 -10 5z"/>
<path d="M3041 1504 c0 -11 3 -14 6 -6 3 7 2 16 -1 19 -3 4 -6 -2 -5 -13z"/>
<path d="M3870 1513 c8 -3 22 -11 30 -17 13 -10 13 -9 1 7 -7 9 -21 17 -30 16
-13 0 -14 -1 -1 -6z"/>
<path d="M3630 1491 c0 -6 4 -13 10 -16 6 -3 7 1 4 9 -7 18 -14 21 -14 7z"/>
</g>
</svg>
